<?xml version="1.0" standalone="no"?>
<!DOCTYPE svg PUBLIC "-//W3C//DTD SVG 20010904//EN"
 "http://www.w3.org/TR/2001/REC-SVG-20010904/DTD/svg10.dtd">
<svg version="1.0" xmlns="http://www.w3.org/2000/svg"
 width="700.000000pt" height="700.000000pt" viewBox="0 0 700.000000 700.000000"
 preserveAspectRatio="xMidYMid meet">
<metadata>
Created by potrace 1.14, written by Peter Selinger 2001-2017
</metadata>
<g transform="translate(0.000000,700.000000) scale(0.100000,-0.100000)"
fill="#000000" stroke="none">
<path d="M3154 6131 c-64 -29 -97 -81 -102 -155 -4 -73 15 -115 71 -160 34
-27 47 -31 102 -31 51 0 69 5 101 27 22 15 47 41 57 57 23 40 32 111 18 153
-23 69 -107 128 -182 128 -13 0 -43 -9 -65 -19z"/>
<path d="M3644 5884 c-17 -8 -190 -175 -385 -370 -195 -196 -367 -362 -383
-371 -52 -27 -106 4 -106 62 0 28 15 48 114 148 127 127 148 160 150 228 3
133 -147 225 -266 163 -40 -21 -516 -498 -528 -529 -52 -137 42 -271 182 -259
58 4 78 14 133 65 57 52 92 59 128 23 51 -51 48 -57 -212 -318 -131 -133 -246
-256 -255 -274 -39 -76 -13 -173 60 -225 49 -34 96 -43 154 -27 40 11 85 52
431 396 342 341 389 384 416 384 55 0 89 -59 60 -103 -8 -13 -198 -206 -420
-430 -223 -223 -413 -420 -422 -438 -77 -148 97 -321 245 -244 19 10 111 96
206 191 94 96 184 180 199 188 32 17 80 5 95 -24 24 -45 13 -64 -126 -206 -75
-76 -147 -155 -159 -174 -57 -86 -21 -205 77 -254 53 -27 108 -27 160 0 18 9
196 179 396 378 200 198 365 362 366 364 12 11 54 9 74 -4 50 -33 46 -84 -13
-141 -48 -46 -67 -87 -68 -143 0 -64 40 -133 93 -160 48 -25 126 -28 166 -7
39 20 361 342 381 381 38 73 10 176 -60 227 -82 59 -164 52 -250 -21 -39 -34
-68 -50 -86 -50 -38 0 -71 34 -71 72 0 28 29 60 243 275 133 133 247 255 254
270 17 38 16 104 -2 146 -16 38 -64 83 -104 99 -40 15 -105 12 -142 -7 -19
-10 -240 -224 -491 -476 -251 -253 -461 -459 -465 -460 -4 0 -19 -2 -32 -3
-33 -4 -71 35 -71 71 0 22 52 79 300 328 199 199 304 312 315 337 45 110 -29
232 -149 245 -66 8 -105 -11 -187 -87 -61 -58 -80 -70 -108 -70 -41 0 -71 30
-71 71 0 24 39 68 230 259 126 127 237 245 246 262 30 59 19 140 -28 199 -44
55 -148 76 -214 43z"/>
<path d="M4084 5601 c-62 -28 -116 -112 -108 -166 10 -68 19 -90 51 -126 114
-126 327 -29 311 141 -12 125 -143 203 -254 151z"/>
<path d="M4705 4739 c-67 -19 -130 -118 -119 -187 9 -57 15 -71 40 -102 109
-129 318 -51 318 120 -1 123 -116 205 -239 169z"/>
<path d="M5280 3138 c-31 -11 -16 51 -149 -628 -22 -113 -42 -216 -44 -230 -3
-14 -19 -97 -37 -185 -18 -88 -32 -171 -32 -183 -1 -47 21 -55 148 -55 135 0
146 6 158 90 4 26 9 55 11 63 1 8 17 89 35 180 18 91 33 170 34 175 1 6 11 54
21 108 l19 97 268 0 c265 0 272 -1 270 -30 -1 -19 -14 -96 -17 -100 -2 -3 -6
-21 -9 -40 -3 -19 -26 -140 -51 -269 -56 -291 -63 -273 108 -274 86 0 119 3
129 14 11 11 61 241 113 519 3 14 7 36 10 50 25 128 26 198 4 245 -22 45 -41
60 -94 75 -60 17 -87 18 -398 19 l-289 1 5 38 c3 20 8 44 11 52 3 8 7 31 10
50 3 19 11 65 19 101 14 64 10 100 -13 114 -15 9 -216 12 -240 3z"/>
<path d="M1044 3022 c-6 -4 -37 -43 -70 -87 -65 -87 -83 -111 -100 -129 -17
-17 -26 -52 -40 -152 -6 -41 10 -73 39 -75 7 0 28 -2 47 -2 19 -1 35 -6 35
-12 -1 -16 -12 -78 -50 -270 -3 -16 -9 -43 -12 -60 -3 -16 -11 -61 -18 -98
-34 -181 12 -256 166 -273 94 -10 340 -11 371 -1 21 7 29 18 38 55 6 26 11 50
11 54 0 4 4 21 9 38 7 23 4 35 -10 52 -17 22 -26 23 -150 24 -77 1 -136 6
-142 12 -10 10 -5 43 27 202 10 47 55 274 55 275 0 1 53 2 118 2 172 1 161 -1
177 37 25 59 29 125 9 147 -15 17 -31 19 -141 19 -114 0 -124 1 -119 18 3 9 8
35 11 57 4 22 8 48 11 57 14 47 14 72 -1 94 -15 23 -20 24 -138 24 -67 0 -127
-4 -133 -8z"/>
<path d="M2180 2775 c-69 -18 -107 -42 -135 -83 -24 -34 -59 -133 -69 -192 -2
-14 -21 -108 -41 -210 -55 -268 -51 -337 23 -387 61 -41 122 -46 560 -46 442
-1 436 -1 446 49 3 10 9 41 15 68 10 40 9 52 -4 72 l-15 24 -379 0 c-209 0
-386 3 -394 6 -8 3 -13 13 -11 22 1 9 8 41 14 70 l12 52 409 0 409 0 13 23
c20 30 69 288 71 362 1 106 -43 154 -159 174 -90 16 -704 13 -765 -4z m636
-197 c4 -5 2 -46 -5 -93 l-13 -85 -280 0 -280 0 7 46 c15 104 24 132 43 136
34 7 521 3 528 -4z"/>
<path d="M3781 2764 c-100 -27 -141 -65 -179 -165 -27 -74 -112 -503 -112
-566 2 -103 61 -155 190 -169 96 -10 771 -11 802 -1 24 8 29 18 44 85 33 144
56 135 -365 136 -192 1 -353 4 -357 8 -3 4 -1 36 5 70 56 296 75 384 83 393 6
6 139 10 358 11 262 0 353 4 364 13 16 14 40 110 38 151 -4 50 -8 50 -427 49
-304 -1 -402 -4 -444 -15z"/>
<path d="M4696 1867 c-8 -7 -18 -28 -21 -47 -3 -19 -13 -69 -21 -110 -20 -97
-22 -105 -34 -170 -6 -30 -12 -66 -15 -80 -3 -14 -7 -37 -10 -53 -3 -15 -12
-60 -21 -100 -18 -86 -20 -157 -5 -185 16 -30 68 -43 178 -44 159 -1 155 -3
167 73 9 57 -9 72 -87 73 -36 1 -68 4 -72 8 -4 3 -2 30 4 60 14 66 13 62 75
388 3 14 11 58 19 98 12 63 12 74 -1 84 -19 16 -136 20 -156 5z"/>
<path d="M893 1652 c-32 -5 -39 -18 -56 -112 -9 -47 -41 -213 -71 -370 -64
-332 -66 -318 40 -317 45 0 68 5 78 16 8 9 22 60 31 114 l17 97 202 1 c208 1
228 2 284 20 56 18 92 94 117 249 6 37 12 68 21 110 3 14 6 47 8 74 2 41 -2
54 -23 78 -14 16 -39 31 -56 34 -31 6 -554 11 -592 6z m481 -157 c-1 -21 -42
-227 -50 -257 -5 -16 -23 -18 -186 -18 l-180 0 5 23 c6 23 43 203 51 247 2 14
5 26 5 28 1 1 81 1 179 0 170 -3 177 -4 176 -23z"/>
<path d="M1911 1648 c-96 -17 -115 -51 -160 -280 -34 -174 -36 -199 -19 -231
18 -34 39 -45 98 -53 86 -11 511 -10 533 1 25 13 46 75 36 103 -10 25 10 24
-279 26 l-215 1 2 39 c2 22 5 41 8 44 2 3 117 5 254 6 152 1 254 5 260 11 9
10 37 136 45 210 6 49 -16 98 -52 115 -31 15 -437 22 -511 8z m377 -117 c9 -1
11 -14 6 -48 -3 -27 -10 -52 -14 -58 -6 -8 -255 -12 -336 -6 -19 2 6 102 27
109 14 6 252 7 317 3z"/>
<path d="M2821 1649 c-92 -19 -112 -52 -151 -249 -37 -187 -42 -237 -24 -271
25 -49 71 -56 349 -54 138 1 264 5 280 10 61 16 102 78 120 180 2 17 7 41 10
55 69 336 71 333 -305 335 -135 1 -260 -2 -279 -6z m423 -159 c-1 -19 -9 -71
-18 -115 -8 -44 -17 -93 -20 -108 -9 -53 -12 -54 -203 -53 -172 1 -178 2 -177
21 2 21 10 76 17 110 15 72 20 101 19 108 -1 4 4 22 12 40 l13 33 179 0 179
-1 -1 -35z"/>
<path d="M3706 1645 c-16 -8 -27 -45 -62 -225 -24 -118 -45 -228 -48 -245 -3
-16 -10 -55 -16 -85 -6 -30 -13 -68 -16 -85 -3 -16 -9 -47 -14 -68 -9 -42 -4
-73 14 -80 6 -3 42 -4 79 -3 70 2 85 11 88 49 1 9 2 20 3 25 1 4 8 40 16 80
l13 72 204 1 c111 1 206 2 211 3 4 1 23 5 42 9 44 9 86 44 104 88 12 29 28
102 50 219 3 14 9 45 13 70 19 96 6 141 -44 165 -32 16 -74 18 -327 19 -175 1
-298 -3 -310 -9z m498 -133 c3 -5 1 -26 -4 -48 -5 -21 -16 -77 -25 -124 -9
-47 -18 -93 -21 -102 -5 -16 -23 -18 -188 -18 l-183 0 30 150 31 150 177 0
c98 0 180 -4 183 -8z"/>
<path d="M5271 1648 c-63 -11 -110 -62 -126 -137 -73 -343 -72 -394 11 -421
39 -13 540 -21 573 -9 16 7 41 67 41 101 0 28 -46 34 -272 33 l-228 -2 0 26
c1 70 -16 66 260 65 137 0 254 3 261 6 13 9 50 179 50 232 0 48 -14 74 -54 95
-27 14 -66 17 -252 18 -121 1 -240 -2 -264 -7z m388 -122 c6 -4 9 -11 6 -16
-2 -4 -7 -25 -11 -46 -3 -22 -8 -41 -10 -43 -2 -2 -81 -5 -175 -5 l-171 -1 7
44 c9 58 14 69 33 73 31 6 310 0 321 -6z"/>
</g>
</svg>
