<svg width="30" height="23" viewBox="0 0 30 23" fill="none" xmlns="http://www.w3.org/2000/svg">
<path d="M25.64 2.89252C23.0925 0.842518 19.0625 0.495018 18.89 0.482517C18.6225 0.460018 18.3675 0.610018 18.2575 0.857518C18.2475 0.872517 18.16 1.07502 18.0625 1.39002C19.7475 1.67502 21.8175 2.24752 23.69 3.41002C23.99 3.59502 24.0825 3.99001 23.8975 4.29001C23.775 4.48751 23.5675 4.59501 23.3525 4.59501C23.2375 4.59501 23.12 4.56251 23.015 4.49751C19.795 2.50002 15.775 2.40002 15 2.40002C14.225 2.40002 10.2025 2.50002 6.98503 4.49751C6.68503 4.68501 6.29003 4.59251 6.10503 4.29251C5.91753 3.99001 6.01003 3.59752 6.31003 3.41002C8.18253 2.25002 10.2525 1.67502 11.9375 1.39252C11.84 1.07502 11.7525 0.875018 11.745 0.857518C11.6325 0.610018 11.38 0.455018 11.11 0.482517C10.9375 0.495018 6.90753 0.842517 4.32503 2.92002C2.97753 4.16751 0.280029 11.4575 0.280029 17.76C0.280029 17.8725 0.310029 17.98 0.36503 18.0775C2.22503 21.3475 7.30253 22.2025 8.46003 22.24C8.46503 22.24 8.47253 22.24 8.48003 22.24C8.68503 22.24 8.87753 22.1425 8.99753 21.9775L10.1675 20.3675C7.01003 19.5525 5.39753 18.1675 5.30503 18.085C5.04003 17.8525 5.01503 17.4475 5.25003 17.1825C5.48253 16.9175 5.88753 16.8925 6.15253 17.125C6.19003 17.16 9.16003 19.68 15 19.68C20.85 19.68 23.82 17.15 23.85 17.125C24.115 16.895 24.5175 16.9175 24.7525 17.185C24.985 17.45 24.96 17.8525 24.695 18.085C24.6025 18.1675 22.99 19.5525 19.8325 20.3675L21.0025 21.9775C21.1225 22.1425 21.315 22.24 21.52 22.24C21.5275 22.24 21.535 22.24 21.54 22.24C22.6975 22.2025 27.775 21.3475 29.635 18.0775C29.69 17.98 29.72 17.8725 29.72 17.76C29.72 11.4575 27.0225 4.16752 25.64 2.89252ZM10.84 15.2C9.60253 15.2 8.60003 14.055 8.60003 12.64C8.60003 11.225 9.60253 10.08 10.84 10.08C12.0775 10.08 13.08 11.225 13.08 12.64C13.08 14.055 12.0775 15.2 10.84 15.2ZM19.16 15.2C17.9225 15.2 16.92 14.055 16.92 12.64C16.92 11.225 17.9225 10.08 19.16 10.08C20.3975 10.08 21.4 11.225 21.4 12.64C21.4 14.055 20.3975 15.2 19.16 15.2Z" fill="white"/>
</svg>
