<svg width="70" height="70" viewBox="0 0 70 70" fill="none" xmlns="http://www.w3.org/2000/svg">
<path d="M42.8667 26.3C42.7334 26.4333 42.6001 26.5666 42.4334 26.7C42.1001 27 41.6667 27 41.4001 26.7C41.1001 26.4 41.1001 25.9666 41.4001 25.6666C41.7667 25.2666 42.1334 24.9 42.5334 24.5333C43.6334 23.4333 44.7334 22.3333 45.8334 21.2333C46.5001 20.5666 46.4667 19.4666 45.8334 18.7666C45.1667 18.0666 44.1001 17.9666 43.3334 18.5666C42.7334 19.0333 42.3001 19.6666 41.7334 20.1666C41.1667 20.6666 40.6667 21.2333 40.1334 21.7666C39.1001 22.8 38.0667 23.8333 37.0001 24.9C36.1001 25.8 35.2334 26.6666 34.3334 27.5666C34.0667 27.8333 33.5667 27.8333 33.3334 27.6C33.0334 27.3 33.0001 26.8666 33.3001 26.5666C33.3667 26.5 33.4334 26.4333 33.4667 26.3666C35.2334 24.6 37.0001 22.8333 38.8001 21.0666C38.9667 20.9 39.1001 20.7333 39.2001 20.5333C39.6001 19.7 39.3667 18.7333 38.6667 18.2666C37.8334 17.7 36.9334 17.7666 36.2334 18.4666C35.9334 18.7666 35.6334 19.0666 35.3001 19.3666C35.2001 19.4666 35.1001 19.5333 34.9667 19.5333C34.6334 19.6 34.3334 19.4333 34.1667 19.1333C34.0001 18.8333 34.1001 18.5 34.3667 18.2333C35.7334 16.8666 37.1001 15.4666 38.5001 14.1C39.2334 13.3666 39.2334 12.2333 38.5001 11.5C37.8334 10.8 36.6334 10.8 35.9334 11.5C35.1001 12.3 34.3001 13.1333 33.4667 13.9666C32.0001 15.4333 30.5001 16.9333 29.0334 18.4C28.6667 18.7666 28.2001 18.8 27.8668 18.4666C27.5668 18.1333 27.6001 17.7 27.9668 17.3333C28.6001 16.7 29.2667 16.0666 29.8667 15.4333C30.5667 14.6666 30.5334 13.5333 29.7668 12.8333C29.0668 12.1666 27.9334 12.2 27.2001 12.9C25.7334 14.3666 24.2668 15.8333 22.8001 17.3C22.0334 18.0666 22.0334 19.1333 22.7668 19.9333C23.4334 20.6333 24.6001 20.6666 25.3668 19.9666C25.5334 19.8 25.7001 19.6333 25.8668 19.5C26.2668 19.1666 26.8334 19.3 27.0334 19.8C27.2001 20.2 27.0001 20.5 26.7334 20.7333C25.3334 22.1333 23.9334 23.5 22.5668 24.9C21.8334 25.6333 21.7668 26.7666 22.4334 27.4666C23.2001 28.2666 24.3001 28.3 25.0668 27.5666C25.7668 26.8666 26.4668 26.1666 27.1668 25.4666C28.8334 23.8 30.5334 22.1 32.2001 20.4333C32.5334 20.1 33.0001 20.1 33.2667 20.3666C33.5667 20.6666 33.5667 21.1333 33.2334 21.4666C31.8001 22.9 30.3334 24.3333 28.9001 25.8C27.7001 27 26.5001 28.2 25.3001 29.4C24.6001 30.1333 24.5668 31.1666 25.2334 31.9333C25.8334 32.6333 26.9334 32.7666 27.6668 32.2C28.0001 31.9666 28.2667 31.6333 28.5667 31.3333C29.4334 30.4666 30.3001 29.5666 31.2001 28.7C31.6334 28.2666 32.2667 28.4 32.4667 28.9333C32.6001 29.2666 32.4667 29.5333 32.2334 29.7666C31.4001 30.6 30.5668 31.4333 29.7668 32.2666C29.0668 33 29.1001 34.1 29.8334 34.8333C30.5001 35.5 31.6334 35.5333 32.3334 34.8666C32.6334 34.5666 32.9667 34.2666 33.2667 33.9666C35.3001 31.9333 37.3334 29.9 39.3667 27.8666C39.6667 27.5666 40.1001 27.5666 40.4001 27.8C40.7001 28.0666 40.7334 28.4666 40.4667 28.8333C40.3334 29 40.2001 29.1333 40.0334 29.2666C39.4667 29.8333 39.3001 30.5666 39.6001 31.3C39.8667 32 40.5334 32.4333 41.2667 32.4333C41.7001 32.4333 42.1334 32.3333 42.4334 32.0333C43.5001 31 44.5334 29.9666 45.5667 28.9C46.2667 28.1666 46.2001 27.0666 45.5001 26.3666C44.7334 25.6 43.6001 25.6 42.8667 26.3Z" fill="white"/>
<path d="M41.5335 17.5C42.5668 17.5 43.4002 16.7 43.4002 15.6334C43.4002 14.6667 42.5668 13.8334 41.6002 13.8C40.5668 13.8 39.7668 14.6334 39.7668 15.6334C39.7335 16.6667 40.5668 17.5 41.5335 17.5Z" fill="white"/>
<path d="M32.2335 12.2C33.2668 12.2 34.1001 11.4 34.1001 10.3333C34.1001 9.36667 33.2668 8.53333 32.3001 8.5C31.2668 8.5 30.4668 9.33333 30.4668 10.3333C30.4668 11.4 31.2668 12.2 32.2335 12.2Z" fill="white"/>
<path d="M47.6668 22.5C46.6335 22.5 45.8335 23.3333 45.8335 24.3333C45.8335 25.3333 46.6335 26.1667 47.6002 26.1667C48.6335 26.1667 49.4668 25.3667 49.4668 24.3C49.4668 23.3333 48.6335 22.5 47.6668 22.5Z" fill="white"/>
<path d="M14.4667 51C14.4334 51.2666 14.2001 51.4333 13.9334 51.4333H11.4667C10.4334 51.4333 9.70008 51.2999 9.26675 51.0666C8.83341 50.7999 8.63341 50.3333 8.63341 49.6333C8.63341 49.2999 8.66675 48.9333 8.76675 48.5L9.60008 44.2333H8.83341C8.50008 44.2333 8.23341 43.9333 8.30008 43.6L8.53341 42.3333C8.53341 42.2666 8.56675 42.1666 8.63341 42.1L10.3001 39.9C10.4001 39.7666 10.5667 39.7 10.7334 39.7H12.7334C13.0667 39.7 13.3334 40 13.2667 40.3333L12.9001 42.2H15.1667C15.5001 42.2 15.7667 42.5 15.7001 42.8333L15.5001 43.7999C15.4667 44.0666 15.2334 44.2333 14.9667 44.2333H12.5001L11.6001 48.7666C11.6001 48.8333 11.6001 48.8666 11.6001 48.8999C11.6001 49.0666 11.7334 49.1333 12.0334 49.1333H14.2001C14.5334 49.1333 14.8001 49.4333 14.7334 49.7666L14.4667 51Z" fill="white"/>
<path d="M29.6333 51C29.6 51.2666 29.3666 51.4333 29.1 51.4333H21.9333C20.7 51.4333 19.8666 51.2333 19.4 50.8666C18.9666 50.5 18.8333 49.7666 19.0333 48.7L19.8 44.8333C20.0333 43.7 20.3666 42.9666 20.8666 42.6333C21.3666 42.2666 22.2 42.1 23.3666 42.1H28.0666C29.3 42.1 30.1333 42.2666 30.6 42.6333C31.0666 43 31.2 43.7333 30.9666 44.8L30.4666 47.3666C30.4333 47.6333 30.2 47.8 29.9333 47.8H22L21.7666 48.9333C21.7333 49.0666 21.7333 49.1666 21.8 49.2333C21.8666 49.2666 21.9666 49.3 22.1666 49.3H29.3333C29.6666 49.3 29.9333 49.6 29.8666 49.9333L29.6333 51ZM27.9666 46L28.2333 44.5C28.2666 44.3333 28.2666 44.2333 28.2 44.2C28.1333 44.1666 28.0333 44.1333 27.8666 44.1333H23.1666C23 44.1333 22.8666 44.1666 22.8 44.2C22.7333 44.2333 22.6666 44.3333 22.6333 44.5L22.3666 46H27.9666Z" fill="white"/>
<path d="M45.1668 50.9999C45.1335 51.2666 44.9001 51.4333 44.6335 51.4333H37.8335C36.8001 51.4333 36.0668 51.2999 35.6001 51.0666C35.1335 50.8333 34.9001 50.3333 34.9001 49.6333C34.9001 49.3666 34.9335 49.0333 35.0001 48.6666L35.7335 44.9666C35.9668 43.8666 36.3335 43.1333 36.8335 42.7666C37.3335 42.4 38.2001 42.2 39.3668 42.2H46.0001C46.3335 42.2 46.6001 42.5 46.5335 42.8333L46.3335 43.8999C46.3001 44.1666 46.0668 44.3333 45.8001 44.3333H39.3001C39.1335 44.3333 39.0001 44.3666 38.9335 44.3999C38.8668 44.4333 38.8001 44.5333 38.8001 44.7L38.0001 48.7999C37.9668 48.8666 37.9668 48.8999 37.9668 48.9333C37.9668 49.0999 38.1001 49.1666 38.3668 49.1666H44.9001C45.2335 49.1666 45.5001 49.4666 45.4335 49.7999L45.1668 50.9999Z" fill="white"/>
<path d="M61.0668 51.4333H59.1668C58.8334 51.4333 58.5668 51.1333 58.6334 50.8L59.8334 44.6667C59.8334 44.6 59.8334 44.5333 59.8334 44.5333C59.8334 44.4333 59.8001 44.3667 59.7668 44.3333C59.7001 44.3 59.6001 44.3 59.4668 44.3H54.4334L53.1334 51C53.1001 51.2667 52.8668 51.4333 52.6001 51.4333H50.7001C50.3668 51.4333 50.1001 51.1333 50.1668 50.8L52.4668 39C52.5001 38.7333 52.7334 38.5667 53.0001 38.5667H54.9001C55.2334 38.5667 55.5001 38.8667 55.4334 39.2L54.8668 42.2H60.0001C61.0334 42.2 61.7668 42.3333 62.2001 42.5667C62.6334 42.8 62.8668 43.3 62.8668 44C62.8668 44.2667 62.8334 44.6 62.7668 44.9666L61.6001 51C61.5334 51.2333 61.3334 51.4333 61.0668 51.4333Z" fill="white"/>
<path d="M12.8334 59.1999H9.33338L8.96671 61.1332C8.93338 61.3332 8.76671 61.4666 8.56671 61.4666H7.53338C7.26671 61.4666 7.10004 61.2332 7.13338 60.9999L8.53338 53.7999C8.56671 53.5999 8.73338 53.4666 8.93338 53.4666H13.9C14.5334 53.4666 15 53.5332 15.2667 53.6999C15.5334 53.8666 15.6667 54.1332 15.6667 54.5666C15.6667 54.7332 15.6334 54.9332 15.6 55.1666L15.1667 57.4666C15.0334 58.1666 14.8 58.5999 14.4667 58.8332C14.1 59.0999 13.5667 59.1999 12.8334 59.1999ZM13.2667 57.5666L13.7667 55.0332C13.7667 54.9999 13.7667 54.9666 13.7667 54.9332C13.7667 54.8666 13.7334 54.8332 13.7 54.8332C13.6667 54.8332 13.6 54.7999 13.5 54.7999H10.2L9.60004 57.7999H12.9667C13.0667 57.7999 13.1334 57.7999 13.2 57.7666C13.2334 57.6999 13.2667 57.6666 13.2667 57.5666Z" fill="white"/>
<path d="M23.8668 58.8999C23.8335 59.0999 23.6668 59.2332 23.4668 59.2332H19.0668C18.3001 59.2332 17.7668 59.1332 17.5001 58.8999C17.2335 58.6666 17.1335 58.2332 17.2668 57.5332L17.7335 55.1332C17.8668 54.4332 18.1001 53.9666 18.4001 53.7666C18.7001 53.5332 19.2335 53.4332 19.9668 53.4332H22.9001C23.6668 53.4332 24.2001 53.5332 24.4668 53.7666C24.7668 53.9999 24.8335 54.4332 24.7001 55.0999L24.4001 56.6332C24.3668 56.8332 24.2001 56.9666 24.0001 56.9666H19.1335L19.0001 57.6666C18.9668 57.7666 19.0001 57.8332 19.0335 57.8332C19.0668 57.8666 19.1335 57.8666 19.2668 57.8666H23.6335C23.9001 57.8666 24.0668 58.0999 24.0335 58.3332L23.8668 58.8999ZM22.8335 55.8332L23.0001 54.8999C23.0335 54.7999 23.0335 54.7332 22.9668 54.6999C22.9335 54.6666 22.8668 54.6666 22.7668 54.6666H19.8335C19.7335 54.6666 19.6668 54.6666 19.6001 54.6999C19.5668 54.7332 19.5335 54.7999 19.5001 54.8999L19.3335 55.8332H22.8335Z" fill="white"/>
<path d="M31.6668 59.2666H28.1335C27.3668 59.2666 26.8668 59.1666 26.6002 58.9332C26.3335 58.6999 26.2668 58.2332 26.4002 57.5666L26.8668 55.1332C27.0002 54.4332 27.2335 53.9666 27.5335 53.7666C27.8335 53.5332 28.3335 53.4332 29.0668 53.4332H32.6002C33.3668 53.4332 33.8668 53.5666 34.1335 53.7666C34.4002 53.9666 34.4668 54.4666 34.3668 55.1332L33.9002 57.5666C33.7668 58.2666 33.5335 58.7332 33.2335 58.9332C32.9002 59.1666 32.3668 59.2666 31.6668 59.2666ZM32.0002 57.6332L32.5002 54.9666C32.5002 54.8666 32.5002 54.7999 32.4668 54.7666C32.4335 54.7332 32.3668 54.7332 32.2668 54.7332H29.0668C28.9668 54.7332 28.8668 54.7332 28.8335 54.7666C28.8002 54.7999 28.7668 54.8666 28.7335 54.9666L28.2335 57.6332C28.2002 57.7332 28.2335 57.7999 28.2668 57.8332C28.3002 57.8666 28.3668 57.8666 28.5002 57.8666H31.6668C31.7668 57.8666 31.8335 57.8666 31.9002 57.8332C31.9335 57.7666 31.9668 57.6999 32.0002 57.6332Z" fill="white"/>
<path d="M41.1334 59.1999H37.6334L37.2668 61.1332C37.2334 61.3332 37.0668 61.4666 36.8668 61.4666H35.8334C35.5668 61.4666 35.4001 61.2332 35.4334 60.9999L36.8334 53.7999C36.8668 53.5999 37.0334 53.4666 37.2334 53.4666H42.2001C42.8334 53.4666 43.3001 53.5332 43.5668 53.6999C43.8334 53.8666 43.9668 54.1332 43.9668 54.5666C43.9668 54.7332 43.9334 54.9332 43.9001 55.1666L43.4668 57.4666C43.3334 58.1666 43.1001 58.5999 42.7668 58.8332C42.4001 59.0999 41.8668 59.1999 41.1334 59.1999ZM41.5668 57.5666L42.0668 55.0332C42.0668 54.9999 42.0668 54.9666 42.0668 54.9332C42.0668 54.8666 42.0334 54.8332 42.0001 54.8332C41.9668 54.8332 41.9001 54.7999 41.8001 54.7999H38.4334L37.8334 57.7999H41.2001C41.3001 57.7999 41.3668 57.7999 41.4334 57.7666C41.5334 57.6999 41.5668 57.6666 41.5668 57.5666Z" fill="white"/>
<path d="M49.0666 58.8999C49.0333 59.0999 48.8666 59.2333 48.6666 59.2333H47.3333C46.7 59.2333 46.2333 59.1666 45.9666 59.0333C45.7 58.8999 45.5667 58.6333 45.5667 58.1999C45.5667 57.9999 45.6 57.7666 45.6333 57.4999L46.8 51.5666C46.8333 51.3666 47 51.2333 47.2 51.2333H48.2333C48.5 51.2333 48.6666 51.4666 48.6333 51.6999L47.5 57.5666C47.5 57.5999 47.4666 57.6333 47.4666 57.6333C47.4666 57.7333 47.5666 57.7666 47.7333 57.7666H48.7667C49.0333 57.7666 49.2 57.9999 49.1666 58.2333L49.0666 58.8999Z" fill="white"/>
<path d="M57.5333 58.8999C57.5 59.0999 57.3333 59.2332 57.1333 59.2332H52.7333C51.9666 59.2332 51.4333 59.1332 51.1666 58.8999C50.9 58.6666 50.8 58.2332 50.9333 57.5332L51.4 55.1332C51.5333 54.4332 51.7666 53.9666 52.0666 53.7666C52.3666 53.5332 52.9 53.4332 53.6333 53.4332H56.5666C57.3333 53.4332 57.8666 53.5332 58.1333 53.7666C58.4333 53.9999 58.5 54.4332 58.3666 55.0999L58.0666 56.6332C58.0333 56.8332 57.8666 56.9666 57.6666 56.9666H52.8L52.6666 57.6666C52.6333 57.7666 52.6666 57.8332 52.7 57.8332C52.7333 57.8666 52.8 57.8666 52.9333 57.8666H57.3C57.5666 57.8666 57.7333 58.0999 57.7 58.3332L57.5333 58.8999ZM56.4666 55.8332L56.6333 54.8999C56.6666 54.7999 56.6666 54.7332 56.6 54.6999C56.5666 54.6666 56.5 54.6666 56.4 54.6666H53.4666C53.3666 54.6666 53.3 54.6666 53.2333 54.6999C53.2 54.7332 53.1666 54.7999 53.1333 54.8999L52.9666 55.8332H56.4666Z" fill="white"/>
</svg>
